{
  "accessors": [
    {
      "bufferView": 2,
      "componentType": 5126,
      "count": 2878,
      "max": [
        1.0000001192092896,
        1.0000001192092896,
        2.8867995738983154
      ],
      "min": [
        -1.0000001192092896,
        -1.000000238418579,
        -0.0014309121761471033
      ],
      "type": "VEC3"
    },
    {
      "bufferView": 2,
      "byteOffset": 34536,
      "componentType": 5126,
      "count": 2878,
      "max": [
        0.9986109733581543,
        0.9986109137535095,
        1.0
      ],
      "min": [
        -0.9986109137535095,
        -0.9986110329627991,
        -1.0
      ],
      "type": "VEC3"
    },
    {
      "bufferView": 3,
      "componentType": 5126,
      "count": 2878,
      "max": [
        1.0,
        0.9999986886978149,
        1.0,
        1.0
      ],
      "min": [
        -1.0,
        -0.9999995827674866,
        -1.0,
        -1.0
      ],
      "type": "VEC4"
    },
    {
      "bufferView": 1,
      "componentType": 5126,
      "count": 2878,
      "max": [
        0.9994432330131531,
        0.9658108949661255
      ],
      "min": [
        0.0005567932967096567,
        0.0005567932967096567
      ],
      "type": "VEC2"
    },
    {
      "bufferView": 1,
      "byteOffset": 23024,
      "componentType": 5126,
      "count": 2878,
      "max": [
        0.9994432330131531,
        0.9658108949661255
      ],
      "min": [
        0.0005567932967096567,
        0.0005567932967096567
      ],
      "type": "VEC2"
    },
    {
      "bufferView": 1,
      "byteOffset": 46048,
      "componentType": 5126,
      "count": 2878,
      "max": [
        0.9994432330131531,
        0.9658108949661255
      ],
      "min": [
        0.0005567932967096567,
        0.0005567932967096567
      ],
      "type": "VEC2"
    },
    {
      "bufferView": 0,
      "componentType": 5125,
      "count": 10392,
      "type": "SCALAR"
    }
  ],
  "asset": {
    "extras": {
      "author": "chammyvasanth0308 (https://sketchfab.com/chammyvasanth0308)",
      "license": "CC-BY-4.0 (http://creativecommons.org/licenses/by/4.0/)",
      "source": "https://sketchfab.com/3d-models/textures-4838817706e2427bae04a175b758789d",
      "title": "Textures"
    },
    "generator": "Sketchfab-16.0.0",
    "version": "2.0"
  },
  "bufferViews": [
    {
      "buffer": 0,
      "byteLength": 41568,
      "name": "floatBufferViews",
      "target": 34963
    },
    {
      "buffer": 0,
      "byteLength": 69072,
      "byteOffset": 41568,
      "byteStride": 8,
      "name": "floatBufferViews",
      "target": 34962
    },
    {
      "buffer": 0,
      "byteLength": 69072,
      "byteOffset": 110640,
      "byteStride": 12,
      "name": "floatBufferViews",
      "target": 34962
    },
    {
      "buffer": 0,
      "byteLength": 46048,
      "byteOffset": 179712,
      "byteStride": 16,
      "name": "floatBufferViews",
      "target": 34962
    }
  ],
  "buffers": [
    {
      "byteLength": 225760,
      "uri": "scene.bin"
    }
  ],
  "extensionsUsed": [
    "KHR_materials_specular"
  ],
  "images": [
    {
      "uri": "textures/pedestal_baseColor.png"
    },
    {
      "uri": "textures/pedestal_metallicRoughness.png"
    },
    {
      "uri": "textures/pedestal_normal.png"
    }
  ],
  "materials": [
    {
      "doubleSided": true,
      "extensions": {
        "KHR_materials_specular": {
          "specularColorFactor": [
            1.0,
            1.0,
            1.0
          ],
          "specularFactor": 0.6019065962867696
        }
      },
      "name": "pedestal",
      "normalTexture": {
        "index": 2,
        "texCoord": 1
      },
      "pbrMetallicRoughness": {
        "baseColorTexture": {
          "index": 0
        },
        "metallicRoughnessTexture": {
          "index": 1
        }
      }
    }
  ],
  "meshes": [
    {
      "name": "Pedestal_pedestal_0",
      "primitives": [
        {
          "attributes": {
            "NORMAL": 1,
            "POSITION": 0,
            "TANGENT": 2,
            "TEXCOORD_0": 3,
            "TEXCOORD_1": 4,
            "TEXCOORD_2": 5
          },
          "indices": 6,
          "material": 0,
          "mode": 4
        }
      ]
    }
  ],
  "nodes": [
    {
      "children": [
        1
      ],
      "matrix": [
        0.42129138112068176,
        0.0,
        0.0,
        0.0,
        0.0,
        9.354547827926258e-17,
        -0.42129138112068176,
        0.0,
        0.0,
        0.42129138112068176,
        9.354547827926258e-17,
        0.0,
        0.0,
        0.0,
        0.0,
        1.0
      ],
      "name": "Sketchfab_model"
    },
    {
      "children": [
        2
      ],
      "matrix": [
        0.009999999776482582,
        0.0,
        0.0,
        0.0,
        0.0,
        0.0,
        0.009999999776482582,
        0.0,
        0.0,
        -0.009999999776482582,
        0.0,
        0.0,
        0.0,
        0.0,
        0.0,
        1.0
      ],
      "name": "pedestal.fbx"
    },
    {
      "children": [
        3
      ],
      "name": "RootNode"
    },
    {
      "children": [
        4
      ],
      "matrix": [
        100.0,
        0.0,
        0.0,
        0.0,
        0.0,
        -1.629206793918314e-05,
        -99.99999999999868,
        0.0,
        0.0,
        99.99999999999868,
        -1.629206793918314e-05,
        0.0,
        0.0,
        0.0,
        0.0,
        1.0
      ],
      "name": "Pedestal"
    },
    {
      "mesh": 0,
      "name": "Pedestal_pedestal_0"
    }
  ],
  "samplers": [
    {
      "magFilter": 9729,
      "minFilter": 9987,
      "wrapS": 10497,
      "wrapT": 10497
    }
  ],
  "scene": 0,
  "scenes": [
    {
      "name": "Sketchfab_Scene",
      "nodes": [
        0
      ]
    }
  ],
  "textures": [
    {
      "sampler": 0,
      "source": 0
    },
    {
      "sampler": 0,
      "source": 1
    },
    {
      "sampler": 0,
      "source": 2
    }
  ]
}
